<svg width="100" height="100" viewBox="0 0 100 100" fill="none" xmlns="http://www.w3.org/2000/svg">
<path d="M95.1074 52.4458C95.1074 78.709 73.8169 99.9995 47.5537 99.9995C21.2905 99.9995 0 78.709 0 52.4458C0 26.1827 21.2905 4.89215 47.5537 4.89215C73.8169 4.89215 95.1074 26.1827 95.1074 52.4458Z" fill="#D6D6D6"/>
<path d="M93.462 22.8707C91.4076 24.9251 85.8818 22.73 81.1196 17.9678C76.3575 13.2057 74.1624 7.67984 76.2168 5.62547C78.2712 3.57109 83.797 5.76616 88.5592 10.5283C93.3213 15.2904 95.5164 20.8163 93.462 22.8707Z" fill="#D6D6D6"/>
<path d="M76.2004 5.64186L93.4193 22.8607L86.5967 29.6833L69.3778 12.4644L76.2004 5.64186Z" fill="#D6D6D6"/>
<path d="M93.91 0.380639C94.8072 -0.516504 97.1139 0.335688 98.0111 1.23283C98.9082 2.12998 99.7604 4.43672 98.8633 5.33387L89.1167 15.0804C88.2196 15.9775 85.9128 15.1254 85.0157 14.2282C84.1185 13.3311 83.2663 11.0243 84.1635 10.1272L93.91 0.380639Z" fill="#D6D6D6"/>
</svg>
