<svg width="58" height="58" viewBox="0 0 58 58" fill="none" xmlns="http://www.w3.org/2000/svg">
<circle cx="29" cy="29" r="11" fill="#717568"/>
<circle cx="29" cy="29" r="3" fill="#E1F4CB"/>
<mask id="path-3-outside-1_12_18" maskUnits="userSpaceOnUse" x="10.5858" y="21.9289" width="14.1421" height="14.1421" fill="black">
<rect fill="white" x="10.5858" y="21.9289" width="14.1421" height="14.1421"/>
<path d="M17.6569 34.6569C18.3997 33.914 18.989 33.0321 19.391 32.0615C19.7931 31.0909 20 30.0506 20 29C20 27.9494 19.7931 26.9091 19.391 25.9385C18.989 24.9679 18.3997 24.086 17.6569 23.3431L12 29L17.6569 34.6569Z"/>
</mask>
<path d="M17.6569 34.6569C18.3997 33.914 18.989 33.0321 19.391 32.0615C19.7931 31.0909 20 30.0506 20 29C20 27.9494 19.7931 26.9091 19.391 25.9385C18.989 24.9679 18.3997 24.086 17.6569 23.3431L12 29L17.6569 34.6569Z" fill="#717568"/>
<path d="M17.6569 34.6569C18.3997 33.914 18.989 33.0321 19.391 32.0615C19.7931 31.0909 20 30.0506 20 29C20 27.9494 19.7931 26.9091 19.391 25.9385C18.989 24.9679 18.3997 24.086 17.6569 23.3431L12 29L17.6569 34.6569Z" stroke="#E1F4CB" stroke-width="2" mask="url(#path-3-outside-1_12_18)"/>
<mask id="path-4-outside-2_12_18" maskUnits="userSpaceOnUse" x="33.2721" y="21.9289" width="14.1421" height="14.1421" fill="black">
<rect fill="white" x="33.2721" y="21.9289" width="14.1421" height="14.1421"/>
<path d="M40.3431 23.3431C39.6003 24.086 39.011 24.9679 38.609 25.9385C38.2069 26.9091 38 27.9494 38 29C38 30.0506 38.2069 31.0909 38.609 32.0615C39.011 33.0321 39.6003 33.914 40.3431 34.6569L46 29L40.3431 23.3431Z"/>
</mask>
<path d="M40.3431 23.3431C39.6003 24.086 39.011 24.9679 38.609 25.9385C38.2069 26.9091 38 27.9494 38 29C38 30.0506 38.2069 31.0909 38.609 32.0615C39.011 33.0321 39.6003 33.914 40.3431 34.6569L46 29L40.3431 23.3431Z" fill="#717568"/>
<path d="M40.3431 23.3431C39.6003 24.086 39.011 24.9679 38.609 25.9385C38.2069 26.9091 38 27.9494 38 29C38 30.0506 38.2069 31.0909 38.609 32.0615C39.011 33.0321 39.6003 33.914 40.3431 34.6569L46 29L40.3431 23.3431Z" stroke="#E1F4CB" stroke-width="2" mask="url(#path-4-outside-2_12_18)"/>
<mask id="path-5-outside-3_12_18" maskUnits="userSpaceOnUse" x="21.9289" y="10.5858" width="14.1421" height="14.1421" fill="black">
<rect fill="white" x="21.9289" y="10.5858" width="14.1421" height="14.1421"/>
<path d="M23.3432 17.6569C24.086 18.3997 24.9679 18.989 25.9385 19.391C26.9091 19.7931 27.9494 20 29 20C30.0506 20 31.0909 19.7931 32.0615 19.391C33.0321 18.989 33.914 18.3997 34.6569 17.6569L29 12L23.3432 17.6569Z"/>
</mask>
<path d="M23.3432 17.6569C24.086 18.3997 24.9679 18.989 25.9385 19.391C26.9091 19.7931 27.9494 20 29 20C30.0506 20 31.0909 19.7931 32.0615 19.391C33.0321 18.989 33.914 18.3997 34.6569 17.6569L29 12L23.3432 17.6569Z" fill="#717568"/>
<path d="M23.3432 17.6569C24.086 18.3997 24.9679 18.989 25.9385 19.391C26.9091 19.7931 27.9494 20 29 20C30.0506 20 31.0909 19.7931 32.0615 19.391C33.0321 18.989 33.914 18.3997 34.6569 17.6569L29 12L23.3432 17.6569Z" stroke="#E1F4CB" stroke-width="2" mask="url(#path-5-outside-3_12_18)"/>
<mask id="path-6-outside-4_12_18" maskUnits="userSpaceOnUse" x="21.9289" y="33.2721" width="14.1421" height="14.1421" fill="black">
<rect fill="white" x="21.9289" y="33.2721" width="14.1421" height="14.1421"/>
<path d="M34.6569 40.3431C33.914 39.6003 33.0321 39.011 32.0615 38.609C31.0909 38.2069 30.0506 38 29 38C27.9494 38 26.9091 38.2069 25.9385 38.609C24.9679 39.011 24.086 39.6003 23.3431 40.3431L29 46L34.6569 40.3431Z"/>
</mask>
<path d="M34.6569 40.3431C33.914 39.6003 33.0321 39.011 32.0615 38.609C31.0909 38.2069 30.0506 38 29 38C27.9494 38 26.9091 38.2069 25.9385 38.609C24.9679 39.011 24.086 39.6003 23.3431 40.3431L29 46L34.6569 40.3431Z" fill="#717568"/>
<path d="M34.6569 40.3431C33.914 39.6003 33.0321 39.011 32.0615 38.609C31.0909 38.2069 30.0506 38 29 38C27.9494 38 26.9091 38.2069 25.9385 38.609C24.9679 39.011 24.086 39.6003 23.3431 40.3431L29 46L34.6569 40.3431Z" stroke="#E1F4CB" stroke-width="2" mask="url(#path-6-outside-4_12_18)"/>
</svg>
