<svg width="89" height="100" viewBox="0 0 89 100" fill="none" xmlns="http://www.w3.org/2000/svg">
<path d="M0 94.2308V8C0 3.58172 3.58173 0 8.00001 0H48.2906C52.0669 0 55.1282 3.0613 55.1282 6.83761C55.1282 8.72576 56.6589 10.2564 58.547 10.2564H80.4615C84.8798 10.2564 88.4615 13.8381 88.4615 18.2564V60.9402C88.4615 66.463 83.9844 70.9402 78.4616 70.9402H54.416C49.8529 70.9402 46.1538 67.2411 46.1538 62.6781C46.1538 60.3965 44.3043 58.547 42.0228 58.547H13.5385C12.4339 58.547 11.5385 59.4424 11.5385 60.547V94.2308C11.5385 97.417 8.95549 100 5.76923 100C2.58297 100 0 97.417 0 94.2308Z" fill="#969696"/>
</svg>
