<svg width="32" height="32" viewBox="0 0 32 32" fill="none" xmlns="http://www.w3.org/2000/svg">
<rect x="5.65685" y="22.6274" width="4" height="8" rx="1" transform="rotate(45 5.65685 22.6274)" fill="#717568"/>
<rect x="28.2843" width="4" height="30" rx="1" transform="rotate(45 28.2843 0)" fill="#717568"/>
<rect x="16.9706" y="19.799" width="4" height="12" rx="1" transform="rotate(45 16.9706 19.799)" fill="#717568"/>
<rect x="28.2843" y="8.48528" width="4" height="14" rx="1" transform="rotate(45 28.2843 8.48528)" fill="#717568"/>
<rect x="14.8492" y="4.94975" width="4" height="21" rx="1" transform="rotate(45 14.8492 4.94975)" fill="#717568"/>
<rect x="19.799" width="4" height="5" rx="1" transform="rotate(45 19.799 0)" fill="#717568"/>
<rect x="28.2843" y="16.9706" width="4" height="16" rx="1" transform="rotate(45 28.2843 16.9706)" fill="#717568"/>
<rect x="11.3137" width="4" height="16" rx="1" transform="rotate(45 11.3137 0)" fill="#717568"/>
<rect x="28.2843" y="25.4558" width="4" height="4" rx="1" transform="rotate(45 28.2843 25.4558)" fill="#717568"/>
<rect x="2.82843" width="4" height="4" rx="1" transform="rotate(45 2.82843 0)" fill="#717568"/>
</svg>
